<svg xmlns="http://www.w3.org/2000/svg" viewBox="0 0 460.33 53.89"><defs><style>.cls-1{fill:#231f20;}</style></defs><g id="Layer_2" data-name="Layer 2"><g id="Layer_1-2" data-name="Layer 1"><path class="cls-1" d="M45.62,52.27,45.48,29,34.38,47.67H26.79L15.69,29.78V52.27H0V1.17H14.16L30.81,28.4,47,1.17H61.17l.15,51.1Z"/><path class="cls-1" d="M242.13,25.33h15V46.94a34.86,34.86,0,0,1-10.51,4.82,43.37,43.37,0,0,1-11.75,1.68A31.24,31.24,0,0,1,220.16,50,25.33,25.33,0,0,1,210,40.55a26.16,26.16,0,0,1-3.69-13.83A26.22,26.22,0,0,1,210,12.88a25.31,25.31,0,0,1,10.29-9.49A32.24,32.24,0,0,1,235.2,0a34.27,34.27,0,0,1,13.47,2.52,25.37,25.37,0,0,1,9.89,7.33l-11,9.71q-4.83-5.61-11.46-5.62A12.13,12.13,0,0,0,227,17.37q-3.36,3.43-3.35,9.35A12.91,12.91,0,0,0,227,36a11.66,11.66,0,0,0,8.87,3.5,16.12,16.12,0,0,0,6.27-1.24Z"/><path class="cls-1" d="M307,39.27v13H264.47V1.17H306v13h-24.6v6H303V32.56H281.41v6.71Z"/><path class="cls-1" d="M356.09,39.27v13H313.6V1.17h41.54v13h-24.6v6h21.61V32.56H330.54v6.71Z"/><path class="cls-1" d="M383.53,35.33l-3.87,4.31V52.27H362.73V1.17h16.93V19.71L396.45,1.17h18.77L394.78,23.65l21.46,28.62H396.31Z"/><path class="cls-1" d="M424.16,52a33,33,0,0,1-9.89-3.83l5.54-12.56A35,35,0,0,0,428,39a32,32,0,0,0,8.69,1.28,13.29,13.29,0,0,0,5.11-.7,2.22,2.22,0,0,0,1.53-2.08c0-1.07-.67-1.87-2-2.41a43.67,43.67,0,0,0-6.6-1.75,75.52,75.52,0,0,1-9.86-2.66A16.78,16.78,0,0,1,418,26q-2.92-3.24-2.92-8.79a15.17,15.17,0,0,1,2.7-8.76,17.84,17.84,0,0,1,8.07-6.21,33.46,33.46,0,0,1,13-2.26A47.66,47.66,0,0,1,449.2,1.13a32.56,32.56,0,0,1,8.94,3.32L453,16.94a31.73,31.73,0,0,0-14.24-3.8q-6.64,0-6.64,3.21c0,1,.66,1.79,2,2.3a41.31,41.31,0,0,0,6.5,1.64,66.48,66.48,0,0,1,9.85,2.52,17.14,17.14,0,0,1,7,4.64q3,3.21,3,8.76a15,15,0,0,1-2.7,8.72,18.18,18.18,0,0,1-8.07,6.21,33.06,33.06,0,0,1-13,2.3A53.52,53.52,0,0,1,424.16,52Z"/><path d="M106.17,9.15c4.38,0,8.19.12,11.39.36a.62.62,0,0,1,.56.62h0v5.49a.62.62,0,0,0,.62.62h3.81a.61.61,0,0,1,.61.64L122.91,22v.18h-2a.62.62,0,0,0-.61.58L120,28l-.38,6.76a.62.62,0,0,1-.6.58l-4.37.11a.62.62,0,0,0-.6.56l-.39,4.93-.1,1.12a.6.6,0,0,1-.61.56h-5.65a.61.61,0,0,0-.61.62v3a.61.61,0,0,1-.59.61c-4.26.16-10,.32-15.32.32-3,0-5.37,0-7.13-.13a.61.61,0,0,1-.57-.48l-.78-3.44a.61.61,0,0,0-.6-.48H78.48v0l-.19-3.83a.63.63,0,0,0-.44-.56L74.19,37l-.13,0-.64-21.22-.14-4.51a.62.62,0,0,1,.57-.63C82.38,10,95,9.15,106.16,9.15h0m52.6.87c9.44,0,22.37.27,35.42,1.4a.64.64,0,0,1,.58.64V36.54a.65.65,0,0,1-.52.63l-3.35.62a.65.65,0,0,0-.52.58l-.33,4.18,0,.53a.64.64,0,0,1-.52.58l-.09,0-3.92.74A.63.63,0,0,0,185,45l-.24,1.9a.65.65,0,0,1-.6.56c-3.82.17-9.14.35-14.52.35q-4.68,0-8.39-.18a.64.64,0,0,1-.6-.6l-.25-3.81a.64.64,0,0,0-.64-.6h-5.13A.63.63,0,0,1,154,42l-.09-.83-.44-4.09a.65.65,0,0,0-.53-.56l-4.05-.71-.16,0-.26-6.9-.16-4.15a.64.64,0,0,0-.49-.6l-2.39-.57a.65.65,0,0,1-.49-.61l0-.65s-.15-5.7-.15-5.8c0-.29.06-.27.24-.28h4.48a.64.64,0,0,0,.64-.64V10.1c2.34,0,5.29-.08,8.68-.08M106.16,3C88.36,3,67.37,5,63.73,5.39a.62.62,0,0,0-.55.61v9.35a.61.61,0,0,0,.61.62h2.93a.61.61,0,0,1,.61.59l.75,24.55a.61.61,0,0,0,.43.57L72,42.75a.62.62,0,0,1,.43.56l.24,4.81a.62.62,0,0,0,.62.58h3.51a.61.61,0,0,1,.59.48l.69,3a.61.61,0,0,0,.51.47,99.18,99.18,0,0,0,12.17.53c8.9,0,18.94-.45,21.43-.56a.62.62,0,0,0,.59-.62V49.32a.61.61,0,0,1,.61-.62h5.18a.61.61,0,0,0,.61-.56l.5-6.19a.61.61,0,0,1,.6-.56l4.5-.12a.62.62,0,0,0,.6-.58l.67-11.8a.62.62,0,0,1,.61-.58h1.5a.62.62,0,0,0,.62-.58l.23-4.81a.62.62,0,0,1,.62-.59l8.58.13a.62.62,0,0,1,.61.6l.12,4.78a.61.61,0,0,0,.47.58l2.49.6a.61.61,0,0,1,.47.57l.41,10.87a.61.61,0,0,0,.5.58l4.09.72a.62.62,0,0,1,.5.54l.63,5.86a.62.62,0,0,0,.61.54H154a.62.62,0,0,1,.61.58l.23,3.44a.61.61,0,0,0,.54.57,138,138,0,0,0,14.2.6c9.05,0,17.82-.5,20-.63a.62.62,0,0,0,.57-.53l.32-2.6a.63.63,0,0,1,.5-.53l4.27-.81a.62.62,0,0,0,.5-.55l.37-4.74a.62.62,0,0,1,.5-.56l3.77-.71a.6.6,0,0,0,.5-.6V17.32a.61.61,0,0,1,.62-.61h3.4a.62.62,0,0,0,.61-.56l.78-9a.61.61,0,0,0-.53-.66,387.31,387.31,0,0,0-47-2.6c-7.27,0-12.5.16-14.2.22a.61.61,0,0,0-.59.61V9.51a.61.61,0,0,1-.61.62H124.85a.61.61,0,0,1-.61-.62V4.67a.6.6,0,0,0-.52-.6,118.73,118.73,0,0,0-17.56-1Z"/></g></g></svg>