<svg xmlns="http://www.w3.org/2000/svg" viewBox="0 0 143.12 50.85"><g id="Layer_2" data-name="Layer 2"><g id="Layer_1-2" data-name="Layer 1"><path d="M43,6.11c4.38,0,8.19.12,11.39.37a.61.61,0,0,1,.57.61h0v5.5a.61.61,0,0,0,.61.61h3.81a.62.62,0,0,1,.62.64L59.73,19v.18h-2a.61.61,0,0,0-.62.57l-.29,5.19-.39,6.76a.62.62,0,0,1-.6.58l-4.37.12a.6.6,0,0,0-.59.56l-.4,4.92L50.34,39a.62.62,0,0,1-.61.57H44.07a.61.61,0,0,0-.61.61v3a.62.62,0,0,1-.59.62c-4.26.15-10,.31-15.32.31-3,0-5.36,0-7.13-.13a.61.61,0,0,1-.57-.48L19.07,40a.61.61,0,0,0-.59-.48H15.3v0l-.19-3.83a.62.62,0,0,0-.43-.56L11,34l-.12,0-.65-21.23-.13-4.51a.62.62,0,0,1,.56-.63C19.2,6.93,31.8,6.11,43,6.11h0M95.59,7C105,7,118,7.26,131,8.38a.65.65,0,0,1,.59.64V33.5a.64.64,0,0,1-.53.63l-3.35.63a.65.65,0,0,0-.52.58l-.32,4.17,0,.53a.65.65,0,0,1-.52.58l-.1,0-3.92.74a.65.65,0,0,0-.52.55l-.24,1.9a.62.62,0,0,1-.6.56c-3.81.17-9.14.35-14.52.35-3.12,0-5.92-.06-8.38-.18a.63.63,0,0,1-.61-.6l-.25-3.8a.64.64,0,0,0-.64-.6H91.42a.65.65,0,0,1-.64-.57l-.09-.84-.44-4.08a.64.64,0,0,0-.52-.57l-4-.71-.17,0-.26-6.9-.15-4.15a.66.66,0,0,0-.5-.6l-2.39-.57a.65.65,0,0,1-.49-.61l0-.65s-.14-5.69-.14-5.8c0-.29,0-.27.24-.28h4.48a.64.64,0,0,0,.64-.64V7.06C89.26,7,92.2,7,95.59,7M43,0C25.19,0,4.19,2,.55,2.36A.61.61,0,0,0,0,3v9.35a.61.61,0,0,0,.61.61H3.54a.61.61,0,0,1,.61.59L4.9,38.07a.61.61,0,0,0,.43.57l3.46,1.08a.59.59,0,0,1,.43.55l.25,4.82a.61.61,0,0,0,.61.58h3.51a.62.62,0,0,1,.6.48l.68,3a.63.63,0,0,0,.52.48,101.3,101.3,0,0,0,12.16.52c8.9,0,19-.44,21.44-.56a.61.61,0,0,0,.58-.61V46.28a.61.61,0,0,1,.61-.61h5.18a.61.61,0,0,0,.61-.56l.51-6.2a.61.61,0,0,1,.59-.56l4.5-.12a.62.62,0,0,0,.6-.58l.68-11.79a.6.6,0,0,1,.61-.58H65a.62.62,0,0,0,.61-.59l.24-4.81a.6.6,0,0,1,.62-.58l8.58.13a.61.61,0,0,1,.6.59l.12,4.79a.63.63,0,0,0,.47.58l2.49.59a.62.62,0,0,1,.47.58l.41,10.87a.62.62,0,0,0,.51.58l4.08.72a.6.6,0,0,1,.5.54l.64,5.85a.61.61,0,0,0,.61.55h4.93a.62.62,0,0,1,.62.57l.22,3.44a.61.61,0,0,0,.54.57,138,138,0,0,0,14.2.6c9,0,17.82-.49,20-.62a.62.62,0,0,0,.57-.54l.33-2.6a.61.61,0,0,1,.49-.53l4.28-.8a.62.62,0,0,0,.49-.56l.37-4.74a.64.64,0,0,1,.5-.56l3.78-.7a.62.62,0,0,0,.5-.61V14.28a.61.61,0,0,1,.61-.61h3.4a.62.62,0,0,0,.62-.56l.77-9a.6.6,0,0,0-.53-.66,387.21,387.21,0,0,0-47-2.6c-7.27,0-12.5.16-14.19.22a.61.61,0,0,0-.59.61V6.48a.61.61,0,0,1-.62.61H61.67a.61.61,0,0,1-.61-.61V1.63a.61.61,0,0,0-.51-.6A118.78,118.78,0,0,0,43,0Z"/></g></g></svg>